<svg xmlns="http://www.w3.org/2000/svg" xmlns:xlink="http://www.w3.org/1999/xlink" version="1.1" id="Layer_1" x="0px" y="0px" width="100px" height="100px" viewBox="0 0 100 100" enable-background="new 0 0 100 100" xml:space="preserve">
<g>
	<polygon fill="#000000" points="76.047,39.243 45.38,68.38 38.461,60.521 31.007,67.084 45.374,83.262 83.522,47.981  "/>
	<g>
		<path fill="#000000" d="M45.233,86.115L28.178,66.91l10.462-9.211l6.868,7.8l14.143-13.438c-3.629-3.567-8.119-6.29-13.149-7.817    c6.021-3.309,10.102-9.677,10.102-16.992c0-10.721-8.757-19.412-19.558-19.412s-19.558,8.691-19.558,19.412    c0,7.315,4.079,13.684,10.102,16.992C14.554,48.202,5.083,60.126,5.083,74.223c0,17.328,14.311,20.312,31.963,20.312    s31.963-2.983,31.963-20.312c0-3.085-0.478-6.056-1.322-8.871L45.233,86.115z"/>
	</g>
	<path fill="#000000" d="M31.007,67.084l7.454-6.562l6.919,7.858l30.667-29.137l7.476,8.739l-38.148,35.28L31.007,67.084z"/>
</g>
</svg>